<svg width="788" height="114" viewBox="0 0 788 114" fill="none" xmlns="http://www.w3.org/2000/svg">
<path d="M179.169 110.901C168.019 110.901 158.069 108.501 149.319 103.701C140.569 98.9014 133.649 92.4514 128.569 84.3314C123.489 76.2214 120.949 67.0814 120.949 56.9214C120.949 46.7614 123.489 37.6214 128.569 29.5114C133.649 21.4014 140.559 14.9414 149.319 10.1414C158.069 5.34142 168.019 2.94141 179.169 2.94141H191.869V19.6614H178.529C171.329 19.6614 164.879 21.3214 159.159 24.6414C153.439 27.9614 148.929 32.4414 145.609 38.0814C142.289 43.7314 140.629 50.0114 140.629 56.9214C140.629 63.8314 142.289 70.1214 145.609 75.7614C148.919 81.4114 153.439 85.8914 159.159 89.2014C164.879 92.5214 171.329 94.1714 178.529 94.1714H191.869V110.891H179.169V110.901Z" fill="#EDEDED"/>
<path d="M551.879 112.17C540.029 112.17 529.509 109.95 520.339 105.5C511.159 101.05 503.999 94.7801 498.849 86.6601C493.699 78.5501 491.119 69.0602 491.119 58.1902C491.119 47.3202 493.309 37.8302 497.679 29.2902C502.049 20.7502 508.119 14.0202 515.889 9.07016C523.649 4.13016 532.679 1.66016 542.989 1.66016C554.139 1.66016 563.419 4.06014 570.829 8.86014C578.239 13.6601 583.779 20.1202 587.449 28.2302C591.119 36.3502 592.949 45.4101 592.949 55.4301C592.949 56.9801 592.909 58.6101 592.839 60.3001C592.769 61.9901 592.589 63.4802 592.309 64.7502H511.869C512.569 71.3902 514.759 76.9902 518.429 81.5802C522.099 86.1702 526.789 89.6202 532.509 91.9502C538.229 94.2802 544.539 95.4402 551.459 95.4402H579.619V112.16H551.889L551.879 112.17ZM572.839 45.0901C572.719 44.1801 572.589 43.3402 572.419 42.4202C571.849 39.3902 570.859 36.4202 569.459 33.5302C568.049 30.6402 566.179 28.0302 563.849 25.7002C561.519 23.3702 558.629 21.5001 555.169 20.0901C551.709 18.6801 547.659 17.9702 542.999 17.9702C538.059 17.9702 533.719 18.9201 529.979 20.8301C526.239 22.7301 523.029 25.2802 520.349 28.4502C517.669 31.6302 515.619 35.1902 514.209 39.1402C513.489 41.1502 512.939 43.0701 512.509 45.0901H572.849H572.839Z" fill="#EDEDED"/>
<path d="M746.92 112.17C735.07 112.17 724.55 109.95 715.38 105.5C706.2 101.05 699.04 94.7801 693.89 86.6601C688.74 78.5501 686.16 69.0602 686.16 58.1902C686.16 47.3202 688.35 37.8302 692.72 29.2902C697.09 20.7502 703.16 14.0202 710.93 9.07016C718.69 4.13016 727.72 1.66016 738.03 1.66016C749.18 1.66016 758.46 4.06014 765.87 8.86014C773.28 13.6601 778.82 20.1202 782.49 28.2302C786.16 36.3502 787.99 45.4101 787.99 55.4301C787.99 56.9801 787.95 58.6101 787.88 60.3001C787.81 61.9901 787.63 63.4802 787.35 64.7502H706.91C707.61 71.3902 709.8 76.9902 713.47 81.5802C717.14 86.1702 721.83 89.6202 727.55 91.9502C733.27 94.2802 739.58 95.4402 746.5 95.4402H774.66V112.16H746.93L746.92 112.17ZM767.88 45.0901C767.76 44.1801 767.63 43.3402 767.46 42.4202C766.89 39.3902 765.9 36.4202 764.5 33.5302C763.09 30.6402 761.22 28.0302 758.89 25.7002C756.56 23.3702 753.67 21.5001 750.21 20.0901C746.75 18.6801 742.7 17.9702 738.04 17.9702C733.1 17.9702 728.76 18.9201 725.02 20.8301C721.28 22.7301 718.07 25.2802 715.39 28.4502C712.71 31.6302 710.66 35.1902 709.25 39.1402C708.53 41.1502 707.98 43.0701 707.55 45.0901H767.89H767.88Z" fill="#EDEDED"/>
<path d="M662.31 110.901C651.16 110.901 641.21 108.501 632.46 103.701C623.71 98.9014 616.79 92.4514 611.71 84.3314C606.63 76.2214 604.09 67.0814 604.09 56.9214C604.09 46.7614 606.63 37.6214 611.71 29.5114C616.79 21.4014 623.7 14.9414 632.46 10.1414C641.21 5.34142 651.16 2.94141 662.31 2.94141H675.01V19.6614H661.67C654.47 19.6614 648.02 21.3214 642.3 24.6414C636.58 27.9614 632.07 32.4414 628.75 38.0814C625.43 43.7314 623.77 50.0114 623.77 56.9214C623.77 63.8314 625.43 70.1214 628.75 75.7614C632.06 81.4114 636.58 85.8914 642.3 89.2014C648.02 92.5214 654.47 94.1714 661.67 94.1714H675.01V110.891H662.31V110.901Z" fill="#EDEDED"/>
<path d="M452.859 3.1799C452.799 3.1799 452.729 3.1799 452.669 3.1799C443.679 3.2299 435.479 8.3099 430.949 16.0799L397.289 73.7799V36.6699C397.289 18.9399 383.499 3.82992 365.779 3.19992C347.169 2.53992 331.879 17.4299 331.879 35.8899V110.67H351.139V34.5099C351.139 27.9599 356.439 22.6599 362.989 22.6599C369.539 22.6599 374.839 27.9699 374.839 34.5099V78.6799L374.909 78.6999C374.909 89.3499 383.549 97.9699 394.199 97.9699C401.279 97.9699 407.459 94.1599 410.819 88.4799L446.089 27.6099C447.949 24.2899 450.109 22.7299 452.819 22.7299C458.659 22.7299 460.509 26.1399 460.509 31.5399V110.66H479.969V35.8799C479.969 17.8199 470.919 3.16992 452.859 3.16992V3.1799Z" fill="#EDEDED"/>
<path d="M318.528 53.6807C318.168 45.7507 316.209 37.8807 312.599 30.8207C312.589 30.8507 312.609 30.7907 312.599 30.8207C307.239 20.2607 298.808 11.7707 288.288 6.38072C288.308 6.38072 288.319 6.3707 288.339 6.3607C272.019 -1.6593 251.738 -1.6593 235.428 6.3607C235.448 6.3607 235.458 6.37072 235.478 6.38072C224.958 11.7707 216.528 20.2707 211.168 30.8207C211.158 30.7907 211.178 30.8507 211.168 30.8207C197.918 56.7407 206.928 91.6907 232.568 105.931C271.268 128.211 322.108 99.7507 318.538 53.6807H318.528ZM242.508 22.4207C288.598 -2.95927 320.958 64.1707 281.248 91.4307C235.068 116.681 202.798 49.9707 242.508 22.4207Z" fill="#EDEDED"/>
<path d="M88.3399 49.6506C88.2499 48.8006 88.5199 47.9506 89.1099 47.3306C104.33 31.4806 107.2 13.4107 107.73 6.20066C107.86 4.44066 106.39 2.98066 104.63 3.10066C97.4297 3.63066 79.3498 6.50065 63.4998 21.7207C62.8798 22.3107 62.0297 22.5806 61.1797 22.4906C56.8897 22.0306 42.9098 22.2307 31.0398 41.6607C30.4298 42.6707 31.1899 43.9506 32.3699 43.8706L45.6497 43.0107C46.0297 42.9907 46.2899 43.3907 46.1099 43.7307L40.6797 53.6106C40.3697 54.1806 40.4697 54.8806 40.9297 55.3406L55.4898 69.9007C55.9498 70.3607 56.6498 70.4607 57.2198 70.1507L67.0999 64.7207C67.4299 64.5407 67.8399 64.7906 67.8199 65.1806L66.9598 78.4607C66.8798 79.6407 68.1697 80.4106 69.1697 79.7906C88.5997 67.9206 88.7999 53.9506 88.3399 49.6506Z" fill="#EDEDED"/>
<path d="M39.1197 71.7908C38.9597 71.6308 38.7995 71.4809 38.6395 71.3409C32.7295 66.0009 23.3095 67.7708 19.3895 74.7008L0.229558 108.521C-0.560442 109.921 0.98948 111.481 2.39948 110.691L36.2195 91.5309C43.1495 87.6009 44.9197 78.1909 39.5797 72.2809C39.4297 72.1209 39.2795 71.9608 39.1295 71.8008L39.1197 71.7908Z" fill="#F1BE48"/>
</svg>
